<?xml version="1.0" standalone="no"?>
<!DOCTYPE svg PUBLIC "-//W3C//DTD SVG 20010904//EN"
 "http://www.w3.org/TR/2001/REC-SVG-20010904/DTD/svg10.dtd">
<svg version="1.0" xmlns="http://www.w3.org/2000/svg"
 width="736.000000pt" height="736.000000pt" viewBox="0 0 736.000000 736.000000"
 preserveAspectRatio="xMidYMid meet">
<metadata>
Created by potrace 1.14, written by Peter Selinger 2001-2017
</metadata>
<g transform="translate(0.000000,736.000000) scale(0.100000,-0.100000)"
fill="#000000" stroke="none">
<path d="M1749 7275 c-3 -2 -27 -6 -54 -8 -43 -4 -106 -15 -193 -31 -12 -3
-26 -7 -30 -10 -5 -3 -21 -7 -36 -10 -118 -21 -325 -106 -496 -203 -46 -26
-170 -112 -188 -129 -7 -8 -17 -14 -22 -14 -12 0 -282 -268 -306 -304 -10 -15
-24 -33 -29 -40 -6 -6 -31 -40 -56 -76 -126 -180 -229 -407 -283 -625 -15 -59
-17 -69 -31 -153 -4 -23 -9 -54 -13 -70 -11 -53 -13 -5502 -2 -5502 6 0 8 -5
5 -10 -7 -12 5525 -9 5565 3 14 4 40 10 59 13 75 13 148 30 199 48 23 8 42 13
42 9 0 -3 7 1 17 8 9 8 18 12 20 10 15 -13 303 126 425 205 131 85 347 276
418 370 8 11 31 40 51 64 97 120 247 388 274 490 1 3 5 12 8 20 12 29 38 105
42 125 3 11 14 56 24 100 51 206 49 62 50 2992 l1 2733 -2728 0 c-1501 0
-2731 -2 -2733 -5z m5361 -43 c-41 -20 -77 -39 -80 -42 -6 -6 -94 -54 -175
-95 -33 -16 -62 -33 -65 -36 -3 -3 -25 -17 -50 -30 -25 -13 -110 -64 -190
-112 -80 -49 -154 -94 -165 -100 -11 -7 -34 -22 -52 -34 -17 -13 -34 -23 -38
-23 -3 0 -11 -5 -18 -11 -7 -6 -39 -28 -72 -50 -126 -82 -140 -92 -143 -100
-2 -5 -8 -9 -13 -9 -8 0 -123 -81 -233 -163 -64 -48 -142 -107 -151 -115 -5
-4 -59 -48 -120 -97 -60 -48 -117 -95 -126 -104 -8 -9 -40 -36 -69 -61 -81
-68 -160 -142 -294 -276 -232 -232 -392 -421 -550 -652 -209 -305 -326 -556
-482 -1032 -42 -129 -79 -242 -82 -250 -3 -8 -6 -21 -8 -27 -1 -7 -12 -43 -24
-80 -12 -38 -23 -72 -24 -78 -1 -5 -4 -14 -8 -20 -3 -5 -9 -26 -13 -45 -4 -19
-10 -39 -13 -45 -4 -5 -7 -16 -8 -22 -1 -7 -9 -32 -17 -55 -9 -24 -27 -79 -40
-123 -14 -44 -36 -109 -50 -145 -13 -36 -25 -69 -27 -75 -3 -13 -14 -42 -57
-150 -73 -185 -236 -506 -285 -559 -10 -11 -18 -24 -18 -29 0 -10 -51 -80 -62
-85 -5 -2 -8 -10 -8 -17 0 -7 -3 -15 -7 -17 -5 -1 -30 -30 -57 -63 -76 -92
-225 -235 -318 -304 -45 -34 -90 -68 -98 -74 -24 -19 -151 -97 -157 -97 -4 0
-14 -6 -22 -14 -29 -26 -427 -221 -440 -216 -2 1 -7 -2 -10 -7 -3 -4 -33 -19
-66 -32 -33 -13 -88 -37 -123 -53 -34 -15 -65 -28 -67 -28 -3 0 -32 -13 -65
-29 -33 -16 -60 -28 -60 -26 0 5 -137 -57 -340 -153 -41 -20 -115 -58 -165
-86 -49 -28 -93 -50 -97 -48 -5 1 -8 -3 -8 -8 0 -6 -11 -15 -24 -19 -33 -13
-341 -211 -383 -246 -6 -5 -35 -26 -63 -45 -28 -19 -78 -56 -110 -83 -32 -26
-62 -47 -67 -47 -5 0 -15 -8 -24 -18 -16 -17 -57 -52 -119 -100 -38 -30 -305
-294 -332 -330 -10 -12 -18 -27 -18 -32 0 -6 -4 -10 -8 -10 -20 0 -21 15 -3
44 27 45 69 122 151 281 41 77 77 142 82 143 4 2 8 9 8 15 0 13 4 21 67 137
22 41 62 116 88 165 78 147 91 170 155 270 33 53 60 98 60 101 0 3 9 14 20 26
11 12 20 28 20 35 0 7 5 13 10 13 6 0 10 5 10 10 0 12 72 124 83 128 4 2 7 8
7 13 0 16 467 722 481 727 5 2 9 8 9 14 0 5 24 43 53 83 28 41 90 129 137 196
47 67 91 128 98 135 6 7 12 15 12 18 0 3 33 50 73 104 40 53 109 146 152 206
44 59 88 117 98 127 9 11 17 23 17 28 0 5 3 11 8 13 4 2 36 41 71 87 35 46 69
91 76 100 7 9 116 144 241 301 125 157 230 287 233 290 4 3 38 43 76 90 38 47
76 92 85 101 8 8 29 33 45 54 17 21 37 46 45 55 13 14 87 100 146 170 53 63
130 151 274 313 169 192 488 507 690 683 25 21 47 41 50 45 3 3 55 47 115 99
61 51 112 97 113 102 2 4 8 8 13 8 5 0 44 29 87 64 42 34 138 109 212 164 74
56 140 105 145 110 6 5 24 17 40 28 17 10 32 21 35 25 3 3 50 36 105 72 55 37
109 74 120 83 17 13 156 103 321 208 23 14 47 26 53 26 6 0 11 4 11 8 0 5 15
16 33 26 17 9 41 22 52 29 33 20 210 120 330 187 72 40 384 197 475 238 36 17
104 48 153 71 48 22 91 41 95 42 8 2 42 15 87 35 94 39 282 113 310 121 6 1
73 25 150 52 167 59 197 63 95 13z"/>
</g>
</svg>
